<svg width="40" height="40" viewBox="0 0 40 40" fill="none" xmlns="http://www.w3.org/2000/svg">
<path fill-rule="evenodd" clip-rule="evenodd" d="M26 16C27.1046 16 28 16.8954 28 18V28C28 29.1046 27.1046 30 26 30H14C12.8954 30 12 29.1046 12 28V18C12 16.8954 12.8954 16 14 16H26ZM26 28H14V18H26V28Z" fill="white"/>
<path fill-rule="evenodd" clip-rule="evenodd" d="M17 18C15.8954 18 15 17.1046 15 16V14H16.7378C15 14 15 13.9981 15 13.9981L15 13.996L15 13.9916L15.0001 13.982L15.0004 13.9592C15.0006 13.9424 15.0011 13.9225 15.0018 13.8997C15.0034 13.8542 15.0061 13.7966 15.0109 13.7286C15.0206 13.5934 15.0389 13.4134 15.0741 13.2025C15.1428 12.7903 15.2839 12.21 15.5861 11.6056C15.8922 10.9933 16.3828 10.3202 17.1562 9.80465C17.942 9.28074 18.9 9 20 9C21.0999 9 22.0579 9.28074 22.8438 9.80464C23.6171 10.3202 24.1077 10.9933 24.4138 11.6056C24.7161 12.21 24.8572 12.7902 24.9259 13.2024C24.9611 13.4133 24.9794 13.5934 24.9891 13.7286C24.9939 13.7965 24.9966 13.8541 24.9982 13.8997C24.9989 13.9225 24.9994 13.9424 24.9996 13.9591L24.9999 13.982L25 13.9916L25 13.9959L25 13.998C25 13.998 25 14 23.0043 14H25V16C25 17.1046 24.1046 18 23 18H17ZM17 16V14C17 14 16.9999 11 20 11C23 11 23 14 23 14V16H17Z" fill="white"/>
<path d="M22 23C22 24.1046 21.1046 25 20 25C18.8954 25 18 24.1046 18 23C18 21.8954 18.8954 21 20 21C21.1046 21 22 21.8954 22 23Z" fill="white"/>
</svg>
